# xmcd
#
# Track frame offsets:
#	150
#	14988
#	28319
#	40595
#	52614
#	62984
#	75913
#	87080
#	102879
#	115310
#	126821
#
# Disc length: 1861 seconds
#
# Revision: 1
# Processed by: cddbd v1.5.1PL2 Copyright (c) Steve Scherf et al.
# Submitted via: audiograbber 1.83.01
#
DISCID=8507430b
DTITLE=Gene Pitney - Golden Greats
DYEAR=1900
DGENRE=
TTITLE0=Bus Stop
TTITLE1=Stop in the name of love
TTITLE2=Cara Mia
TTITLE3=Baby I Need Your Lovin
TTITLE4=A Groovy Kind Of Love
TTITLE5=Green green grass of Home
TTITLE6=Count me in
TTITLE7=Lovin Feelin
TTITLE8=Time wont let me
TTITLE9=Cryin
TTITLE10=Mission Bell
EXTD=Schallplatte
EXTT0=
EXTT1=
EXTT2=
EXTT3=
EXTT4=
EXTT5=
EXTT6=
EXTT7=
EXTT8=
EXTT9=
EXTT10=
PLAYORDER=
